<?xml version="1.0" encoding="UTF-8"?>
<svg width="80" height="80" viewBox="0 0 80 80" xmlns="http://www.w3.org/2000/svg">
    <!-- Chair Base -->
    <path d="M20 50 L60 50 L55 60 L25 60 Z" fill="#4A4A4A"/>
    
    <!-- Chair Seat -->
    <path d="M15 40 L65 40 L60 50 L20 50 Z" fill="#666666"/>
    
    <!-- Chair Back -->
    <path d="M15 15 L25 10 L25 40 L15 40 Z" fill="#808080"/>
    <path d="M25 10 L65 10 L65 40 L25 40 Z" fill="#595959"/>
    
    <!-- Chair Legs -->
    <path d="M25 60 L20 70 L15 70 L20 60 Z" fill="#333333"/>
    <path d="M55 60 L60 70 L65 70 L60 60 Z" fill="#333333"/>
    
    <!-- Highlights -->
    <path d="M25 10 L65 10 L65 15 L25 15 Z" fill="#999999" opacity="0.3"/>
    <path d="M15 40 L65 40 L65 42 L15 42 Z" fill="#FFFFFF" opacity="0.2"/>
</svg> 