<?xml version="1.0" encoding="UTF-8"?>
<svg width="120" height="200" viewBox="0 0 120 200" xmlns="http://www.w3.org/2000/svg">
    <!-- Wardrobe Base -->
    <path d="M20 180 L100 180 L95 190 L25 190 Z" fill="#4A4A4A"/>
    
    <!-- Main Body -->
    <path d="M15 20 L25 15 L25 180 L15 180 Z" fill="#A1887F"/>
    <path d="M25 15 L105 15 L105 180 L25 180 Z" fill="#8D6E63"/>
    
    <!-- Doors -->
    <path d="M30 25 L62 25 L62 170 L30 170 Z" fill="#795548"/>
    <path d="M68 25 L100 25 L100 170 L68 170 Z" fill="#795548"/>
    
    <!-- Door Handles -->
    <circle cx="55" cy="95" r="3" fill="#BCAAA4"/>
    <circle cx="93" cy="95" r="3" fill="#BCAAA4"/>
    
    <!-- Wardrobe Legs -->
    <path d="M25 190 L20 200 L15 200 L20 190 Z" fill="#333333"/>
    <path d="M95 190 L100 200 L105 200 L100 190 Z" fill="#333333"/>
    
    <!-- Highlights -->
    <path d="M25 15 L105 15 L105 20 L25 20 Z" fill="#D7CCC8" opacity="0.3"/>
    <line x1="63" y1="25" x2="63" y2="170" stroke="#6D4C41" stroke-width="2"/>
</svg> 